<svg xmlns="http://www.w3.org/2000/svg" width="23.188" height="13.53" viewBox="0 0 23.188 13.53">
  <defs>
    <style>
      .cls-1 {
        fill: #f14a58;
        fill-rule: evenodd;
      }
    </style>
  </defs>
  <path id="_copy" data-name=" copy" class="cls-1" d="M590.015,1283.29l-1.163,1.16a0.719,0.719,0,0,0-.232.53,0.74,0.74,0,0,0,.232.54l10.835,10.83a0.716,0.716,0,0,0,1.07,0l10.835-10.83a0.74,0.74,0,0,0,.232-0.54,0.719,0.719,0,0,0-.232-0.53l-1.163-1.16a0.715,0.715,0,0,0-1.069,0l-9.138,9.13-9.138-9.13a0.715,0.715,0,0,0-1.069,0h0Z" transform="translate(-588.625 -1283.06)"/>
</svg>
